<?xml version="1.0" encoding="UTF-8" standalone="no"?>
<!-- Created with Inkscape (http://www.inkscape.org/) -->

<svg
   xmlns:dc="http://purl.org/dc/elements/1.1/"
   xmlns:cc="http://creativecommons.org/ns#"
   xmlns:rdf="http://www.w3.org/1999/02/22-rdf-syntax-ns#"
   xmlns:svg="http://www.w3.org/2000/svg"
   xmlns="http://www.w3.org/2000/svg"
   xmlns:sodipodi="http://sodipodi.sourceforge.net/DTD/sodipodi-0.dtd"
   xmlns:inkscape="http://www.inkscape.org/namespaces/inkscape"
   version="1.1"
   id="svg2"
   xml:space="preserve"
   width="777.95734"
   height="675.70667"
   viewBox="0 0 777.95732 675.70665"
   sodipodi:docname="triangle.svg"
   inkscape:version="0.92.5 (2060ec1f9f, 2020-04-08)"><metadata
     id="metadata8"><rdf:RDF><cc:Work
         rdf:about=""><dc:format>image/svg+xml</dc:format><dc:type
           rdf:resource="http://purl.org/dc/dcmitype/StillImage" /><dc:title></dc:title></cc:Work></rdf:RDF></metadata><defs
     id="defs6"><clipPath
       clipPathUnits="userSpaceOnUse"
       id="clipPath20"><path
         d="M 0,800 H 1280 V 0 H 0 Z"
         id="path18"
         inkscape:connector-curvature="0" /></clipPath><clipPath
       clipPathUnits="userSpaceOnUse"
       id="clipPath30"><path
         d="m 666.281,382.769 c -16.431,-0.237 -32.866,-0.201 -49.301,-0.167 v 0 c -5.987,0.012 -11.975,0.025 -17.962,0.025 v 0 c -29.724,-0.006 -59.451,-0.002 -91.609,-0.002 v 0 c 13.623,-23.574 26.196,-45.08 38.453,-66.767 v 0 c 2.124,-3.758 4.991,-3.737 8.205,-3.716 v 0 c 0.242,10e-4 0.488,0.003 0.734,0.003 v 0 c 4.91,-0.003 9.819,-0.003 14.73,-0.003 v 0 c 19.113,10e-4 38.226,0.002 57.337,-0.183 v 0 c 4.644,-0.045 7.498,1.102 9.922,5.427 v 0 c 10.935,19.524 22.127,38.91 33.586,58.134 v 0 c 3.346,5.617 2.956,7.254 -3.493,7.254 v 0 c -0.195,0 -0.396,-0.002 -0.602,-0.005"
         id="path28"
         inkscape:connector-curvature="0" /></clipPath><radialGradient
       fx="0"
       fy="0"
       cx="0"
       cy="0"
       r="1"
       gradientUnits="userSpaceOnUse"
       gradientTransform="matrix(1.5915499,572.81696,572.81696,-1.5915499,640.5957,114.27441)"
       spreadMethod="pad"
       id="radialGradient42"><stop
         style="stop-opacity:1;stop-color:#5b3f1e"
         offset="0"
         id="stop36" /><stop
         style="stop-opacity:1;stop-color:#fadc57"
         offset="0.544944"
         id="stop38" /><stop
         style="stop-opacity:1;stop-color:#5b3f1e"
         offset="1"
         id="stop40" /></radialGradient><clipPath
       clipPathUnits="userSpaceOnUse"
       id="clipPath52"><path
         d="m 626.868,461.272 c -24.019,-0.232 -48.044,-0.169 -72.067,-0.186 v 0 c -3.51,0 -6.654,0.33 -8.939,-3.711 v 0 c -12.257,-21.686 -24.83,-43.193 -38.453,-66.768 v 0 c 32.158,0 61.885,0.005 91.609,-0.002 v 0 c 5.987,-0.001 11.975,0.012 17.962,0.025 v 0 c 16.435,0.034 32.87,0.069 49.301,-0.167 v 0 c 7.023,-0.1 7.542,1.463 4.095,7.25 v 0 c -11.459,19.223 -22.651,38.61 -33.586,58.133 v 0 c -2.379,4.244 -5.172,5.428 -9.665,5.428 v 0 c -0.085,0 -0.171,-10e-4 -0.257,-0.002"
         id="path50"
         inkscape:connector-curvature="0" /></clipPath><radialGradient
       fx="0"
       fy="0"
       cx="0"
       cy="0"
       r="1"
       gradientUnits="userSpaceOnUse"
       gradientTransform="matrix(1.5915678,572.82336,572.82336,-1.5915678,640.5957,114.26953)"
       spreadMethod="pad"
       id="radialGradient64"><stop
         style="stop-opacity:1;stop-color:#5b3f1e"
         offset="0"
         id="stop58" /><stop
         style="stop-opacity:1;stop-color:#fadc57"
         offset="0.544944"
         id="stop60" /><stop
         style="stop-opacity:1;stop-color:#5b3f1e"
         offset="1"
         id="stop62" /></radialGradient><clipPath
       clipPathUnits="userSpaceOnUse"
       id="clipPath74"><path
         d="m 689.233,382.504 c -4.294,0.043 -5.366,-2.431 -6.957,-5.19 v 0 c -12.466,-21.621 -24.99,-43.209 -37.434,-64.841 v 0 c -1.361,-2.367 -3.257,-4.455 -1.273,-7.835 v 0 c 12.747,-21.703 25.262,-43.544 38.584,-66.611 v 0 c 27.901,48.404 55.122,95.628 82.491,143.112 v 0 c -1.645,0.7 -2.489,1.368 -3.329,1.368 v 0 c -24.027,-0.003 -48.055,-0.229 -72.082,-0.003"
         id="path72"
         inkscape:connector-curvature="0" /></clipPath><radialGradient
       fx="0"
       fy="0"
       cx="0"
       cy="0"
       r="1"
       gradientUnits="userSpaceOnUse"
       gradientTransform="matrix(1.5915474,572.81604,572.81604,-1.5915474,640.5957,114.27344)"
       spreadMethod="pad"
       id="radialGradient86"><stop
         style="stop-opacity:1;stop-color:#5b3f1e"
         offset="0"
         id="stop80" /><stop
         style="stop-opacity:1;stop-color:#fadc57"
         offset="0.544944"
         id="stop82" /><stop
         style="stop-opacity:1;stop-color:#5b3f1e"
         offset="1"
         id="stop84" /></radialGradient><clipPath
       clipPathUnits="userSpaceOnUse"
       id="clipPath96"><path
         d="m 644.437,470.981 c -2.135,-3.63 -1.59,-6.295 0.371,-9.654 v 0 c 12.736,-21.798 25.279,-43.706 37.935,-65.549 v 0 c 1.221,-2.108 2.07,-4.5 5.477,-4.483 v 0 c 25.171,0.121 50.342,0.066 77.385,0.066 v 0 c -28.241,48.909 -55.618,96.317 -83.508,144.616 v 0 c -12.97,-22.447 -25.191,-43.795 -37.66,-64.996"
         id="path94"
         inkscape:connector-curvature="0" /></clipPath><radialGradient
       fx="0"
       fy="0"
       cx="0"
       cy="0"
       r="1"
       gradientUnits="userSpaceOnUse"
       gradientTransform="matrix(1.5915518,572.81763,572.81763,-1.5915518,640.5957,114.27344)"
       spreadMethod="pad"
       id="radialGradient108"><stop
         style="stop-opacity:1;stop-color:#5b3f1e"
         offset="0"
         id="stop102" /><stop
         style="stop-opacity:1;stop-color:#fadc57"
         offset="0.544944"
         id="stop104" /><stop
         style="stop-opacity:1;stop-color:#5b3f1e"
         offset="1"
         id="stop106" /></radialGradient><clipPath
       clipPathUnits="userSpaceOnUse"
       id="clipPath118"><path
         d="m 553.385,470.761 c 26.418,0 50.456,0.07 74.495,-0.068 v 0 c 3.977,-0.022 6.449,1.205 8.47,4.765 v 0 c 12.339,21.706 24.891,43.295 37.361,64.925 v 0 c 1.406,2.439 3.263,4.598 1.358,7.862 v 0 c -12.639,21.679 -25.14,43.441 -38.512,66.604 v 0 C 608.544,566.317 581.45,519.378 553.385,470.761"
         id="path116"
         inkscape:connector-curvature="0" /></clipPath><radialGradient
       fx="0"
       fy="0"
       cx="0"
       cy="0"
       r="1"
       gradientUnits="userSpaceOnUse"
       gradientTransform="matrix(1.5915278,572.80902,572.80902,-1.5915278,640.59473,114.2793)"
       spreadMethod="pad"
       id="radialGradient130"><stop
         style="stop-opacity:1;stop-color:#5b3f1e"
         offset="0"
         id="stop124" /><stop
         style="stop-opacity:1;stop-color:#fadc57"
         offset="0.544944"
         id="stop126" /><stop
         style="stop-opacity:1;stop-color:#5b3f1e"
         offset="1"
         id="stop128" /></radialGradient><clipPath
       clipPathUnits="userSpaceOnUse"
       id="clipPath140"><path
         d="m 766.757,541.589 c -24.865,-0.208 -49.734,-0.103 -76.322,-0.103 v 0 c 28.009,-48.512 55.237,-95.671 83.201,-144.104 v 0 c 13.238,22.784 25.405,43.817 37.688,64.781 v 0 c 1.953,3.331 2.065,5.836 -0.092,9.475 v 0 c -12.701,21.44 -24.98,43.132 -37.403,64.733 v 0 c -1.576,2.743 -2.903,5.219 -6.986,5.219 v 0 c -0.028,0 -0.057,0 -0.086,-10e-4"
         id="path138"
         inkscape:connector-curvature="0" /></clipPath><radialGradient
       fx="0"
       fy="0"
       cx="0"
       cy="0"
       r="1"
       gradientUnits="userSpaceOnUse"
       gradientTransform="matrix(1.5915426,572.81433,572.81433,-1.5915426,640.59473,114.27734)"
       spreadMethod="pad"
       id="radialGradient152"><stop
         style="stop-opacity:1;stop-color:#5b3f1e"
         offset="0"
         id="stop146" /><stop
         style="stop-opacity:1;stop-color:#fadc57"
         offset="0.544944"
         id="stop148" /><stop
         style="stop-opacity:1;stop-color:#5b3f1e"
         offset="1"
         id="stop150" /></radialGradient><clipPath
       clipPathUnits="userSpaceOnUse"
       id="clipPath162"><path
         d="m 493.126,541.589 c -24.865,-0.208 -49.735,-0.103 -76.323,-0.103 v 0 c 28.009,-48.512 55.237,-95.671 83.202,-144.104 v 0 c 13.237,22.784 25.405,43.817 37.688,64.781 v 0 c 1.953,3.331 2.066,5.836 -0.093,9.475 v 0 c -12.698,21.44 -24.98,43.132 -37.402,64.733 v 0 c -1.577,2.743 -2.903,5.219 -6.985,5.219 v 0 c -0.029,0 -0.058,0 -0.087,-10e-4"
         id="path160"
         inkscape:connector-curvature="0" /></clipPath><radialGradient
       fx="0"
       fy="0"
       cx="0"
       cy="0"
       r="1"
       gradientUnits="userSpaceOnUse"
       gradientTransform="matrix(1.5915399,572.81335,572.81335,-1.5915399,639.5957,114.27734)"
       spreadMethod="pad"
       id="radialGradient174"><stop
         style="stop-opacity:1;stop-color:#5b3f1e"
         offset="0"
         id="stop168" /><stop
         style="stop-opacity:1;stop-color:#fadc57"
         offset="0.544944"
         id="stop170" /><stop
         style="stop-opacity:1;stop-color:#5b3f1e"
         offset="1"
         id="stop172" /></radialGradient><clipPath
       clipPathUnits="userSpaceOnUse"
       id="clipPath184"><path
         d="M 819.642,616.201 C 807.125,594.282 794.586,572.374 781.817,550.6 v 0 c -2.046,-3.488 -2.136,-6.045 -0.084,-9.526 v 0 c 12.315,-20.915 24.41,-41.96 37.566,-64.664 v 0 c 28.04,48.573 55.26,95.724 83.278,144.264 v 0 c -26.684,0 -51.542,-0.049 -76.403,0.054 v 0 c -0.014,0 -0.027,0 -0.04,0 v 0 c -3.465,0 -4.966,-1.855 -6.492,-4.527"
         id="path182"
         inkscape:connector-curvature="0" /></clipPath><radialGradient
       fx="0"
       fy="0"
       cx="0"
       cy="0"
       r="1"
       gradientUnits="userSpaceOnUse"
       gradientTransform="matrix(1.5915581,572.81989,572.81989,-1.5915581,640.59473,114.27148)"
       spreadMethod="pad"
       id="radialGradient196"><stop
         style="stop-opacity:1;stop-color:#5b3f1e"
         offset="0"
         id="stop190" /><stop
         style="stop-opacity:1;stop-color:#fadc57"
         offset="0.544944"
         id="stop192" /><stop
         style="stop-opacity:1;stop-color:#5b3f1e"
         offset="1"
         id="stop194" /></radialGradient><clipPath
       clipPathUnits="userSpaceOnUse"
       id="clipPath206"><path
         d="m 630.457,303.013 c -25.162,-0.099 -50.324,-0.051 -77.088,-0.051 v 0 c 27.953,-48.448 55.072,-95.454 83.116,-144.058 v 0 c 13.247,23.009 25.429,44.377 37.886,65.58 v 0 c 1.946,3.31 1.618,5.56 -0.201,8.666 v 0 c -12.616,21.534 -25.035,43.18 -37.527,64.783 v 0 c -1.414,2.448 -2.449,5.08 -6.159,5.08 v 0 c -0.009,0 -0.018,0 -0.027,0"
         id="path204"
         inkscape:connector-curvature="0" /></clipPath><radialGradient
       fx="0"
       fy="0"
       cx="0"
       cy="0"
       r="1"
       gradientUnits="userSpaceOnUse"
       gradientTransform="matrix(1.5915455,572.81537,572.81537,-1.5915455,640.59473,114.27441)"
       spreadMethod="pad"
       id="radialGradient218"><stop
         style="stop-opacity:1;stop-color:#5b3f1e"
         offset="0"
         id="stop212" /><stop
         style="stop-opacity:1;stop-color:#fadc57"
         offset="0.544944"
         id="stop214" /><stop
         style="stop-opacity:1;stop-color:#5b3f1e"
         offset="1"
         id="stop216" /></radialGradient><clipPath
       clipPathUnits="userSpaceOnUse"
       id="clipPath228"><path
         d="m 802.237,620.875 c -33.887,-0.237 -67.777,-0.224 -101.666,-0.212 v 0 c -11.32,0.005 -22.639,0.009 -33.958,0.005 v 0 c -6.636,-0.003 -13.271,0 -19.849,0 v 0 c -0.097,-1.473 -0.391,-2.221 -0.14,-2.663 v 0 c 12.192,-21.425 24.493,-42.788 36.6,-64.26 v 0 c 1.775,-3.147 4.23,-3.368 7.212,-3.359 v 0 c 24.688,0.059 49.377,0.169 74.064,0.009 v 0 c 4.743,-0.032 7.384,1.545 9.748,5.777 v 0 c 10.615,19.005 21.459,37.892 32.651,56.561 v 0 c 3.865,6.45 3.338,8.143 -4.281,8.143 v 0 c -0.125,0 -0.252,0 -0.381,-10e-4"
         id="path226"
         inkscape:connector-curvature="0" /></clipPath><radialGradient
       fx="0"
       fy="0"
       cx="0"
       cy="0"
       r="1"
       gradientUnits="userSpaceOnUse"
       gradientTransform="matrix(1.5915325,572.81067,572.81067,-1.5915325,640.5957,114.27832)"
       spreadMethod="pad"
       id="radialGradient240"><stop
         style="stop-opacity:1;stop-color:#5b3f1e"
         offset="0"
         id="stop234" /><stop
         style="stop-opacity:1;stop-color:#fadc57"
         offset="0.544944"
         id="stop236" /><stop
         style="stop-opacity:1;stop-color:#5b3f1e"
         offset="1"
         id="stop238" /></radialGradient><clipPath
       clipPathUnits="userSpaceOnUse"
       id="clipPath250"><path
         d="m 527.484,620.875 c -33.887,-0.237 -67.777,-0.224 -101.666,-0.212 v 0 c -11.319,0.005 -22.639,0.009 -33.958,0.005 v 0 c -6.637,-0.003 -13.27,0 -19.85,0 v 0 c -0.096,-1.473 -0.391,-2.221 -0.14,-2.663 v 0 c 12.193,-21.425 24.493,-42.788 36.6,-64.26 v 0 c 1.776,-3.147 4.231,-3.368 7.213,-3.359 v 0 c 24.687,0.059 49.376,0.169 74.063,0.009 v 0 c 4.742,-0.032 7.384,1.545 9.748,5.777 v 0 c 10.616,19.005 21.459,37.892 32.652,56.561 v 0 c 3.865,6.45 3.338,8.143 -4.28,8.143 v 0 c -0.126,0 -0.253,0 -0.382,-10e-4"
         id="path248"
         inkscape:connector-curvature="0" /></clipPath><radialGradient
       fx="0"
       fy="0"
       cx="0"
       cy="0"
       r="1"
       gradientUnits="userSpaceOnUse"
       gradientTransform="matrix(1.5915376,572.8125,572.8125,-1.5915376,640.59766,114.27832)"
       spreadMethod="pad"
       id="radialGradient262"><stop
         style="stop-opacity:1;stop-color:#5b3f1e"
         offset="0"
         id="stop256" /><stop
         style="stop-opacity:1;stop-color:#fadc57"
         offset="0.544944"
         id="stop258" /><stop
         style="stop-opacity:1;stop-color:#5b3f1e"
         offset="1"
         id="stop260" /></radialGradient><clipPath
       clipPathUnits="userSpaceOnUse"
       id="clipPath272"><path
         d="m 544.387,614.35 c -12.205,-21.033 -24.32,-42.116 -36.497,-63.165 v 0 c -1.626,-2.81 -3.082,-5.205 -0.987,-8.766 v 0 c 12.652,-21.489 25.054,-43.122 38.187,-65.829 v 0 c 27.827,48.227 55.056,95.418 83.182,144.167 v 0 c -26.712,0 -51.582,-0.048 -76.451,0.045 v 0 c -0.012,0 -0.024,0 -0.035,0 v 0 c -4.566,0 -5.705,-3.529 -7.399,-6.452"
         id="path270"
         inkscape:connector-curvature="0" /></clipPath><radialGradient
       fx="0"
       fy="0"
       cx="0"
       cy="0"
       r="1"
       gradientUnits="userSpaceOnUse"
       gradientTransform="matrix(1.591542,572.81409,572.81409,-1.591542,640.5957,114.27539)"
       spreadMethod="pad"
       id="radialGradient284"><stop
         style="stop-opacity:1;stop-color:#5b3f1e"
         offset="0"
         id="stop278" /><stop
         style="stop-opacity:1;stop-color:#fadc57"
         offset="0.544944"
         id="stop280" /><stop
         style="stop-opacity:1;stop-color:#5b3f1e"
         offset="1"
         id="stop282" /></radialGradient><clipPath
       clipPathUnits="userSpaceOnUse"
       id="clipPath294"><path
         d="m 636.976,128.408 291.217,506.749 -583.468,0.031 z m -281.108,500.338 561.183,-0.03 -280.075,-487.4 z"
         id="path292"
         inkscape:connector-curvature="0" /></clipPath><radialGradient
       fx="0"
       fy="0"
       cx="0"
       cy="0"
       r="1"
       gradientUnits="userSpaceOnUse"
       gradientTransform="matrix(1.6138184,580.8316,580.8316,-1.6138184,641.15918,109.00586)"
       spreadMethod="pad"
       id="radialGradient306"><stop
         style="stop-opacity:1;stop-color:#5b3f1e"
         offset="0"
         id="stop300" /><stop
         style="stop-opacity:1;stop-color:#fadc57"
         offset="0.544944"
         id="stop302" /><stop
         style="stop-opacity:1;stop-color:#5b3f1e"
         offset="1"
         id="stop304" /></radialGradient></defs><sodipodi:namedview
     pagecolor="#ffffff"
     bordercolor="#666666"
     borderopacity="1"
     objecttolerance="10"
     gridtolerance="10"
     guidetolerance="10"
     inkscape:pageopacity="0"
     inkscape:pageshadow="2"
     inkscape:window-width="1920"
     inkscape:window-height="1163"
     id="namedview4"
     showgrid="false"
     inkscape:zoom="0.40664061"
	 inkscape:cx="291.90229"
     inkscape:cy="183.21087"
     inkscape:window-x="1920"
     inkscape:window-y="0"
     inkscape:window-maximized="1"
     inkscape:current-layer="g10" /><g
     id="g10"
     inkscape:groupmode="layer"
     inkscape:label="Knot"
     transform="matrix(1.3333333,0,0,-1.3333333,-459.63332,846.91731)"><path
       d="M 0,0 H 1280 V 800 H 0 Z"
       style="fill:none;fill-opacity:1;fill-rule:nonzero;stroke:none"
       id="path12"
       inkscape:connector-curvature="0" /><g
       id="g24"
       style="fill:#c0797f"><g
         id="g26"
         clip-path="url(#clipPath30)"
         style="fill:#c0797f"><g
           id="g32"
           style="fill:#c0797f"><g
             id="g34"
             style="fill:#c0797f"><path
               d="m 666.281,382.769 c -16.431,-0.237 -32.866,-0.201 -49.301,-0.167 v 0 c -5.987,0.012 -11.975,0.025 -17.962,0.025 v 0 c -29.724,-0.006 -59.451,-0.002 -91.609,-0.002 v 0 c 13.623,-23.574 26.196,-45.08 38.453,-66.767 v 0 c 2.124,-3.758 4.991,-3.737 8.205,-3.716 v 0 c 0.242,10e-4 0.488,0.003 0.734,0.003 v 0 c 4.91,-0.003 9.819,-0.003 14.73,-0.003 v 0 c 19.113,10e-4 38.226,0.002 57.337,-0.183 v 0 c 4.644,-0.045 7.498,1.102 9.922,5.427 v 0 c 10.935,19.524 22.127,38.91 33.586,58.134 v 0 c 3.346,5.617 2.956,7.254 -3.493,7.254 v 0 c -0.195,0 -0.396,-0.002 -0.602,-0.005"
               style="fill:#c0797f;stroke:none"
               id="path44"
               inkscape:connector-curvature="0" /></g></g></g></g><g
       id="g46"
       style="fill:#783b98"><g
         id="g48"
         clip-path="url(#clipPath52)"
         style="fill:#783b98"><g
           id="g54"
           style="fill:#783b98"><g
             id="g56"
             style="fill:#783b98"><path
               d="m 626.868,461.272 c -24.019,-0.232 -48.044,-0.169 -72.067,-0.186 v 0 c -3.51,0 -6.654,0.33 -8.939,-3.711 v 0 c -12.257,-21.686 -24.83,-43.193 -38.453,-66.768 v 0 c 32.158,0 61.885,0.005 91.609,-0.002 v 0 c 5.987,-0.001 11.975,0.012 17.962,0.025 v 0 c 16.435,0.034 32.87,0.069 49.301,-0.167 v 0 c 7.023,-0.1 7.542,1.463 4.095,7.25 v 0 c -11.459,19.223 -22.651,38.61 -33.586,58.133 v 0 c -2.379,4.244 -5.172,5.428 -9.665,5.428 v 0 c -0.085,0 -0.171,-10e-4 -0.257,-0.002"
               style="fill:#783b98;stroke:none"
               id="path66"
               inkscape:connector-curvature="0" /></g></g></g></g><g
       id="g68"
       style="fill:#5e0558"><g
         id="g70"
         clip-path="url(#clipPath74)"
         style="fill:#5e0558"><g
           id="g76"
           style="fill:#5e0558"><g
             id="g78"
             style="fill:#5e0558"><path
               d="m 689.233,382.504 c -4.294,0.043 -5.366,-2.431 -6.957,-5.19 v 0 c -12.466,-21.621 -24.99,-43.209 -37.434,-64.841 v 0 c -1.361,-2.367 -3.257,-4.455 -1.273,-7.835 v 0 c 12.747,-21.703 25.262,-43.544 38.584,-66.611 v 0 c 27.901,48.404 55.122,95.628 82.491,143.112 v 0 c -1.645,0.7 -2.489,1.368 -3.329,1.368 v 0 c -24.027,-0.003 -48.055,-0.229 -72.082,-0.003"
               style="fill:#5e0558;stroke:none"
               id="path88"
               inkscape:connector-curvature="0" /></g></g></g></g><g
       id="g90"
       style="fill:#d68556"><g
         id="g92"
         clip-path="url(#clipPath96)"
         style="fill:#d68556"><g
           id="g98"
           style="fill:#d68556"><g
             id="g100"
             style="fill:#d68556"><path
               d="m 644.437,470.981 c -2.135,-3.63 -1.59,-6.295 0.371,-9.654 v 0 c 12.736,-21.798 25.279,-43.706 37.935,-65.549 v 0 c 1.221,-2.108 2.07,-4.5 5.477,-4.483 v 0 c 25.171,0.121 50.342,0.066 77.385,0.066 v 0 c -28.241,48.909 -55.618,96.317 -83.508,144.616 v 0 c -12.97,-22.447 -25.191,-43.795 -37.66,-64.996"
               style="fill:#d68556;stroke:none"
               id="path110"
               inkscape:connector-curvature="0" /></g></g></g></g><g
       id="g112"
       style="fill:#75b415"><g
         id="g114"
         clip-path="url(#clipPath118)"
         style="fill:#75b415"><g
           id="g120"
           style="fill:#75b415"><g
             id="g122"
             style="fill:#75b415"><path
               d="m 553.385,470.761 c 26.418,0 50.456,0.07 74.495,-0.068 v 0 c 3.977,-0.022 6.449,1.205 8.47,4.765 v 0 c 12.339,21.706 24.891,43.295 37.361,64.925 v 0 c 1.406,2.439 3.263,4.598 1.358,7.862 v 0 c -12.639,21.679 -25.14,43.441 -38.512,66.604 v 0 C 608.544,566.317 581.45,519.378 553.385,470.761"
               style="fill:#75b415;stroke:none"
               id="path132"
               inkscape:connector-curvature="0" /></g></g></g></g><g
       id="g134"
       style="fill:#f918c5"><g
         id="g136"
         clip-path="url(#clipPath140)"
         style="fill:#f918c5"><g
           id="g142"
           style="fill:#f918c5"><g
             id="g144"
             style="fill:#f918c5"><path
               d="m 766.757,541.589 c -24.865,-0.208 -49.734,-0.103 -76.322,-0.103 v 0 c 28.009,-48.512 55.237,-95.671 83.201,-144.104 v 0 c 13.238,22.784 25.405,43.817 37.688,64.781 v 0 c 1.953,3.331 2.065,5.836 -0.092,9.475 v 0 c -12.701,21.44 -24.98,43.132 -37.403,64.733 v 0 c -1.576,2.743 -2.903,5.219 -6.986,5.219 v 0 c -0.028,0 -0.057,0 -0.086,-10e-4"
               style="fill:#f918c5;stroke:none"
               id="path154"
               inkscape:connector-curvature="0" /></g></g></g></g><g
       id="g156"
       style="fill:#113ae1"><g
         id="g158"
         clip-path="url(#clipPath162)"
         style="fill:#113ae1"><g
           id="g164"
           style="fill:#113ae1"><g
             id="g166"
             style="fill:#113ae1"><path
               d="m 493.126,541.589 c -24.865,-0.208 -49.735,-0.103 -76.323,-0.103 v 0 c 28.009,-48.512 55.237,-95.671 83.202,-144.104 v 0 c 13.237,22.784 25.405,43.817 37.688,64.781 v 0 c 1.953,3.331 2.066,5.836 -0.093,9.475 v 0 c -12.698,21.44 -24.98,43.132 -37.402,64.733 v 0 c -1.577,2.743 -2.903,5.219 -6.985,5.219 v 0 c -0.029,0 -0.058,0 -0.087,-10e-4"
               style="fill:#113ae1;stroke:none"
               id="path176"
               inkscape:connector-curvature="0" /></g></g></g></g><g
       id="g178"
       style="fill:#a8d887"><g
         id="g180"
         clip-path="url(#clipPath184)"
         style="fill:#a8d887"><g
           id="g186"
           style="fill:#a8d887"><g
             id="g188"
             style="fill:#a8d887"><path
               d="M 819.642,616.201 C 807.125,594.282 794.586,572.374 781.817,550.6 v 0 c -2.046,-3.488 -2.136,-6.045 -0.084,-9.526 v 0 c 12.315,-20.915 24.41,-41.96 37.566,-64.664 v 0 c 28.04,48.573 55.26,95.724 83.278,144.264 v 0 c -26.684,0 -51.542,-0.049 -76.403,0.054 v 0 c -0.014,0 -0.027,0 -0.04,0 v 0 c -3.465,0 -4.966,-1.855 -6.492,-4.527"
               style="fill:#a8d887;stroke:none"
               id="path198"
               inkscape:connector-curvature="0" /></g></g></g></g><g
       id="g200"
       style="fill:#e05bd1"><g
         id="g202"
         clip-path="url(#clipPath206)"
         style="fill:#e05bd1"><g
           id="g208"
           style="fill:#e05bd1"><g
             id="g210"
             style="fill:#e05bd1"><path
               d="m 630.457,303.013 c -25.162,-0.099 -50.324,-0.051 -77.088,-0.051 v 0 c 27.953,-48.448 55.072,-95.454 83.116,-144.058 v 0 c 13.247,23.009 25.429,44.377 37.886,65.58 v 0 c 1.946,3.31 1.618,5.56 -0.201,8.666 v 0 c -12.616,21.534 -25.035,43.18 -37.527,64.783 v 0 c -1.414,2.448 -2.449,5.08 -6.159,5.08 v 0 c -0.009,0 -0.018,0 -0.027,0"
               style="fill:#e05bd1;stroke:none"
               id="path220"
               inkscape:connector-curvature="0" /></g></g></g></g><g
       id="g222"
       style="fill:#2233d2"><g
         id="g224"
         clip-path="url(#clipPath228)"
         style="fill:#2233d2"><g
           id="g230"
           style="fill:#2233d2"><g
             id="g232"
             style="fill:#2233d2"><path
               d="m 802.237,620.875 c -33.887,-0.237 -67.777,-0.224 -101.666,-0.212 v 0 c -11.32,0.005 -22.639,0.009 -33.958,0.005 v 0 c -6.636,-0.003 -13.271,0 -19.849,0 v 0 c -0.097,-1.473 -0.391,-2.221 -0.14,-2.663 v 0 c 12.192,-21.425 24.493,-42.788 36.6,-64.26 v 0 c 1.775,-3.147 4.23,-3.368 7.212,-3.359 v 0 c 24.688,0.059 49.377,0.169 74.064,0.009 v 0 c 4.743,-0.032 7.384,1.545 9.748,5.777 v 0 c 10.615,19.005 21.459,37.892 32.651,56.561 v 0 c 3.865,6.45 3.338,8.143 -4.281,8.143 v 0 c -0.125,0 -0.252,0 -0.381,-10e-4"
               style="fill:#2233d2;stroke:none"
               id="path242"
               inkscape:connector-curvature="0" /></g></g></g></g><g
       id="g244"
       style="fill:#9c6ff4"><g
         id="g246"
         clip-path="url(#clipPath250)"
         style="fill:#9c6ff4"><g
           id="g252"
           style="fill:#9c6ff4"><g
             id="g254"
             style="fill:#9c6ff4"><path
               d="m 527.484,620.875 c -33.887,-0.237 -67.777,-0.224 -101.666,-0.212 v 0 c -11.319,0.005 -22.639,0.009 -33.958,0.005 v 0 c -6.637,-0.003 -13.27,0 -19.85,0 v 0 c -0.096,-1.473 -0.391,-2.221 -0.14,-2.663 v 0 c 12.193,-21.425 24.493,-42.788 36.6,-64.26 v 0 c 1.776,-3.147 4.231,-3.368 7.213,-3.359 v 0 c 24.687,0.059 49.376,0.169 74.063,0.009 v 0 c 4.742,-0.032 7.384,1.545 9.748,5.777 v 0 c 10.616,19.005 21.459,37.892 32.652,56.561 v 0 c 3.865,6.45 3.338,8.143 -4.28,8.143 v 0 c -0.126,0 -0.253,0 -0.382,-10e-4"
               style="fill:#9c6ff4;stroke:none"
               id="path264"
               inkscape:connector-curvature="0" /></g></g></g></g><g
       id="g266"
       style="fill:#8eab89;fill-opacity:1"><g
         id="g268"
         clip-path="url(#clipPath272)"
         style="fill:#8eab89;fill-opacity:1"><g
           id="g274"
           style="fill:#8eab89;fill-opacity:1"><g
             id="g276"
             style="fill:#8eab89;fill-opacity:1"><path
               d="m 544.387,614.35 c -12.205,-21.033 -24.32,-42.116 -36.497,-63.165 v 0 c -1.626,-2.81 -3.082,-5.205 -0.987,-8.766 v 0 c 12.652,-21.489 25.054,-43.122 38.187,-65.829 v 0 c 27.827,48.227 55.056,95.418 83.182,144.167 v 0 c -26.712,0 -51.582,-0.048 -76.451,0.045 v 0 c -0.012,0 -0.024,0 -0.035,0 v 0 c -4.566,0 -5.705,-3.529 -7.399,-6.452"
               style="fill:#8eab89;stroke:none;fill-opacity:1"
               id="path286"
               inkscape:connector-curvature="0" /></g></g></g></g><g
       id="g288"
       style="fill:"><g
         id="g290"
         clip-path="url(#clipPath294)"
         style="fill:"><g
           id="g296"
           style="fill:"><g
             id="g298"
             style="fill:"><path
               d="m 636.976,128.408 291.217,506.749 -583.468,0.031 z m -281.108,500.338 561.183,-0.03 -280.075,-487.4 z"
               style="fill:;stroke:none"
               id="path308"
               inkscape:connector-curvature="0" /></g></g></g></g></g></svg>